<svg width="34" height="33" viewBox="0 0 34 33" fill="none" xmlns="http://www.w3.org/2000/svg">
<path d="M12.6956 21.2749H20.5872V32.6976H12.6956V21.2749Z" fill="#BDB6B6"/>
<path d="M0.5 0V24.3801H33.4987L33.5 0H0.5ZM10.8302 2.38834H23.1685V4.28531H10.8302V2.38834ZM13.6279 20.2344H4.01604V8.71159H13.7006V20.2344H13.6279ZM29.2671 19.4611H19.2961C18.8656 19.4611 18.5792 19.1094 18.5792 18.759C18.5792 18.4072 18.8657 18.0569 19.2961 18.0569H29.2671C29.6975 18.0569 29.984 18.4086 29.984 18.759C29.984 19.1107 29.6975 19.4611 29.2671 19.4611ZM29.2671 15.1758H19.2961C18.8656 15.1758 18.5792 14.8241 18.5792 14.4737C18.5792 14.1219 18.8657 13.7715 19.2961 13.7715H29.2671C29.6975 13.7715 29.984 14.1233 29.984 14.4737C29.984 14.8241 29.6975 15.1758 29.2671 15.1758ZM29.2671 10.8905H19.2961C18.8656 10.8905 18.5792 10.5388 18.5792 10.1884C18.5792 9.83662 18.8657 9.48623 19.2961 9.48623H29.2671C29.6975 9.48623 29.984 9.83797 29.984 10.1884C29.984 10.5388 29.6975 10.8905 29.2671 10.8905Z" fill="#BDB6B6"/>
</svg>
