<svg width="39" height="38" viewBox="0 0 39 38" fill="none" xmlns="http://www.w3.org/2000/svg">
<path d="M14.167 23.6515H23.3342V37.1515H14.167V23.6515Z" fill="#6D6969"/>
<path d="M0 0.382446V29.2996H38.3328L38.3344 0.382446H0ZM12 3.21525H26.3328V5.46525H12V3.21525ZM15.25 24.3824H4.0844V10.7152H15.3344V24.3824H15.25ZM33.4172 23.4652H21.8344C21.3344 23.4652 21.0016 23.048 21.0016 22.6324C21.0016 22.2152 21.3344 21.7996 21.8344 21.7996H33.4172C33.9172 21.7996 34.25 22.2168 34.25 22.6324C34.25 23.0496 33.9172 23.4652 33.4172 23.4652ZM33.4172 18.3824H21.8344C21.3344 18.3824 21.0016 17.9652 21.0016 17.5496C21.0016 17.1324 21.3344 16.7168 21.8344 16.7168H33.4172C33.9172 16.7168 34.25 17.134 34.25 17.5496C34.25 17.9653 33.9172 18.3824 33.4172 18.3824ZM33.4172 13.2996H21.8344C21.3344 13.2996 21.0016 12.8824 21.0016 12.4668C21.0016 12.0496 21.3344 11.634 21.8344 11.634H33.4172C33.9172 11.634 34.25 12.0512 34.25 12.4668C34.25 12.8825 33.9172 13.2996 33.4172 13.2996Z" fill="#6D6969" fill-opacity="0.5"/>
</svg>
