<svg width="99" height="100" viewBox="0 0 99 100" fill="none" xmlns="http://www.w3.org/2000/svg">
<g filter="url(#filter0_d_850_311)">
<rect x="4.8905" width="89.719" height="92" rx="5" fill="#2D2D2C"/>
<path d="M69.1579 52.5711L51.9192 23.4428C50.7726 21.501 48.8945 21.5283 47.7477 23.4701L30.509 52.5581C29.3624 54.4999 30.2193 56 32.4134 56H67.2517C69.4474 56 70.3045 54.5097 69.1579 52.5711ZM49.8196 29.8898C50.9228 29.8898 51.7782 31.1538 51.7209 32.6988L51.3707 42.0079C51.3149 43.5514 50.6129 44.8154 49.8149 44.8154C49.0154 44.8154 48.3134 43.5514 48.2576 42.0079L47.9121 32.6988C47.8563 31.1538 48.7132 29.8898 49.8196 29.8898ZM49.8196 51.8273C48.4265 51.8273 47.4704 50.7721 47.4999 49.3298C47.4999 47.8555 48.4575 46.8324 49.8196 46.8324C51.2389 46.8324 52.1361 47.8571 52.1671 49.3298C52.1656 50.7721 51.239 51.8273 49.8196 51.8273Z" fill="#6D6969" fill-opacity="0.5"/>
</g>
<defs>
<filter id="filter0_d_850_311" x="0.890503" y="0" width="97.719" height="100" filterUnits="userSpaceOnUse" color-interpolation-filters="sRGB">
<feFlood flood-opacity="0" result="BackgroundImageFix"/>
<feColorMatrix in="SourceAlpha" type="matrix" values="0 0 0 0 0 0 0 0 0 0 0 0 0 0 0 0 0 0 127 0" result="hardAlpha"/>
<feOffset dy="4"/>
<feGaussianBlur stdDeviation="2"/>
<feComposite in2="hardAlpha" operator="out"/>
<feColorMatrix type="matrix" values="0 0 0 0 0 0 0 0 0 0 0 0 0 0 0 0 0 0 0.25 0"/>
<feBlend mode="normal" in2="BackgroundImageFix" result="effect1_dropShadow_850_311"/>
<feBlend mode="normal" in="SourceGraphic" in2="effect1_dropShadow_850_311" result="shape"/>
</filter>
</defs>
</svg>
