<svg width="40" height="36" viewBox="0 0 40 36" fill="none" xmlns="http://www.w3.org/2000/svg">
<path d="M39.4861 31.6107L22.1033 1.85621C20.9471 -0.127324 19.0533 -0.0993937 17.8969 1.8841L0.514109 31.5974C-0.642131 33.581 0.221921 35.1133 2.43443 35.1133H37.564C39.7781 35.1133 40.6424 33.5909 39.4861 31.6107ZM19.9861 8.44181C21.0986 8.44181 21.9611 9.73298 21.9033 11.3113L21.5502 20.8205C21.4939 22.3971 20.7861 23.6883 19.9814 23.6883C19.1752 23.6883 18.4673 22.3971 18.4111 20.8205L18.0627 11.3113C18.0064 9.73298 18.8705 8.44181 19.9861 8.44181ZM19.9861 30.8509C18.5814 30.8509 17.6174 29.773 17.647 28.2998C17.647 26.7937 18.6127 25.7486 19.9861 25.7486C21.4174 25.7486 22.322 26.7953 22.3533 28.2998C22.3518 29.773 21.4174 30.8509 19.9861 30.8509Z" fill="#6D6969" fill-opacity="0.5"/>
</svg>
