<svg width="9" height="17" viewBox="0 0 9 17" fill="none" xmlns="http://www.w3.org/2000/svg">
<path d="M0.00749779 8.5228C0.0343332 8.70948 0.11951 8.88216 0.250191 9.0175L7.41898 16.485C7.57767 16.674 7.80753 16.7884 8.05372 16.8024C8.30108 16.8152 8.54144 16.7265 8.72114 16.5573C8.89966 16.387 9 16.1513 9 15.9039C8.99883 15.6577 8.89615 15.422 8.71647 15.2529L2.13581 8.40128L8.71647 1.54971C8.89615 1.38169 8.99883 1.14599 9 0.898635C9 0.652441 8.89965 0.415577 8.72114 0.246393C8.54145 0.0760422 8.3011 -0.0126362 8.05372 0.00136566C7.80753 0.0142021 7.57765 0.129715 7.41898 0.31757L0.250191 7.78506C0.0611706 7.98108 -0.0275068 8.25295 0.00749779 8.52249V8.5228Z" fill="white" fill-opacity="0.5"/>
</svg>
