<svg width="21" height="17" viewBox="0 0 21 17" fill="none" xmlns="http://www.w3.org/2000/svg">
<path fill-rule="evenodd" clip-rule="evenodd" d="M2.41739 16.6462H12.6748C13.6989 16.6462 14.5374 15.5976 14.5374 14.3169V3.22166C14.5374 1.9409 13.6989 0.892334 12.6748 0.892334H2.41739C1.39319 0.892334 0.554688 1.9409 0.554688 3.22166V14.3169C0.554688 15.5976 1.39319 16.6462 2.41739 16.6462ZM16.056 5.39424L19.8324 3.30302C20.0843 3.164 20.354 3.19062 20.5858 3.37845C20.8176 3.56628 20.9453 3.86353 20.9453 4.20814V13.3274C20.9453 13.672 20.8164 13.9692 20.5858 14.157C20.354 14.3449 20.0855 14.3715 19.8324 14.2325L16.056 12.1413V5.3929V5.39424Z" fill="white" fill-opacity="0.6"/>
</svg>
