<svg width="17" height="9" viewBox="0 0 17 9" fill="none" xmlns="http://www.w3.org/2000/svg">
<path d="M8.50653 8.97531C8.69286 8.94852 8.8652 8.86351 9.00029 8.73308L16.4535 1.57799C16.6422 1.41961 16.7563 1.19019 16.7703 0.944469C16.7831 0.697583 16.6946 0.457684 16.5257 0.27833C16.3557 0.10015 16.1204 0 15.8735 0C15.6278 0.00116449 15.3926 0.103647 15.2237 0.282989L8.38525 6.85106L1.54677 0.282989C1.37907 0.103647 1.14382 0.00116568 0.896941 0C0.651218 0 0.414806 0.100153 0.245947 0.27833C0.075922 0.457672 -0.0125885 0.697559 0.00138855 0.944469C0.0141983 1.19019 0.129492 1.41963 0.316988 1.57799L7.7702 8.73308C7.96585 8.92174 8.2375 9.01025 8.50653 8.97531Z" fill="white" fill-opacity="0.5"/>
</svg>
