<svg width="23" height="22" viewBox="0 0 23 22" fill="none" xmlns="http://www.w3.org/2000/svg">
<path d="M11.5 14.4375C10.0417 14.4375 8.64268 15.0167 7.61132 16.0488C6.57922 17.0801 6 18.4792 6 19.9375H17C17 18.4792 16.4208 17.0802 15.3887 16.0488C14.3574 15.0167 12.9584 14.4375 11.5 14.4375Z" fill="#6D6969"/>
<path d="M8.77417 11C8.80338 11.2355 8.86182 11.4666 8.94948 11.6875C9.36884 12.7282 10.3786 13.4097 11.5002 13.4097C12.6217 13.4097 13.6314 12.7282 14.0508 11.6875C14.1385 11.4666 14.1969 11.2355 14.2262 11H17.0001C17.0001 9.9 16.6701 8.82493 16.0531 7.91494C15.4361 7.00401 14.5604 6.2993 13.5385 5.89197L13.2188 2.06265H9.78132L9.46163 5.89197C8.43984 6.29932 7.56413 7.00401 6.94703 7.91494C6.33 8.82501 6 9.90009 6 11H8.77417ZM10.8126 3.4375H11.1563V3.09375C11.1563 2.90383 11.3102 2.75 11.5001 2.75C11.69 2.75 11.8438 2.90383 11.8438 3.09375V3.4375H12.1876C12.3775 3.4375 12.5313 3.59133 12.5313 3.78125C12.5313 3.97117 12.3775 4.125 12.1876 4.125H11.8438V4.46875C11.8438 4.65867 11.69 4.8125 11.5001 4.8125C11.3102 4.8125 11.1563 4.65867 11.1563 4.46875V4.125H10.8126C10.6227 4.125 10.4688 3.97117 10.4688 3.78125C10.4688 3.59133 10.6227 3.4375 10.8126 3.4375Z" fill="#6D6969"/>
</svg>
