<svg width="23" height="22" viewBox="0 0 23 22" fill="none" xmlns="http://www.w3.org/2000/svg">
<path d="M8.42669 3.90852C8.09755 3.90852 7.85693 4.16806 7.85693 4.48946V14.0071C7.85693 14.2159 8.02451 14.3844 8.23419 14.3844H21.4076C21.6173 14.3844 21.7848 14.2159 21.7848 14.0071V5.42446C21.7848 5.21649 21.6172 5.0472 21.4076 5.0472H13.8735V4.48946C13.8735 4.16806 13.6277 3.90852 13.2977 3.90852H8.42511H8.42669ZM13.7428 6.61122H15.9007V8.76309H18.0586V10.921H15.9007V13.0789H13.7428V10.921H11.5909V8.76309H13.7428V6.61122Z" fill="#6D6969"/>
<path d="M1.28369 11.0609V16.1691H4.45301V11.0609H1.28369ZM1.40057 11.1778H4.33625V16.0453H1.40057V11.1778ZM2.32182 11.6935L2.31494 11.7003C2.05283 11.8593 1.88181 12.1824 1.88181 12.5253C1.88181 12.8751 2.06056 13.1604 2.32867 13.3572V13.3641H3.40117L3.41492 13.3572C3.68306 13.1604 3.85492 12.8751 3.85492 12.5253C3.85492 12.1824 3.69078 11.8593 3.42867 11.7003L3.42179 11.6935H2.32182ZM2.35619 11.8241H3.37369C3.58853 11.9891 3.73119 12.2374 3.73119 12.5116C3.73119 12.7952 3.59455 13.0495 3.36683 13.2197H2.36996C2.14222 13.0496 1.99871 12.8021 1.99871 12.5185C1.99871 12.2426 2.13877 11.9753 2.35619 11.8241ZM2.45244 12.1266V12.5872H2.56244V12.1266H2.45244ZM3.16744 12.161V12.546H3.27744V12.161H3.16744ZM2.87181 12.8553C2.77556 12.8553 2.69306 12.8949 2.69306 12.9722V13.1509H3.04369V12.9722C3.04369 12.8949 2.96806 12.8553 2.87181 12.8553ZM2.32181 13.8591L2.31493 13.8659C2.05282 14.0249 1.88179 14.3481 1.88179 14.6909C1.88179 15.0407 2.06054 15.326 2.32866 15.5228V15.5366H3.40116L3.41491 15.5228C3.68304 15.326 3.85491 15.0407 3.85491 14.6909C3.85491 14.3481 3.69077 14.0249 3.42866 13.8659L3.42178 13.8591H2.32181ZM2.35618 13.9828H3.37368C3.58852 14.1478 3.73118 14.3962 3.73118 14.6703C3.73118 14.9539 3.59454 15.2152 3.36682 15.3853H2.36995C2.14221 15.2152 1.9987 14.9677 1.9987 14.6841C1.9987 14.4082 2.13876 14.1341 2.35618 13.9828ZM2.45243 14.2922V14.7528H2.56243V14.2922H2.45243ZM3.16743 14.3266V14.7116H3.27743V14.3266H3.16743ZM2.87179 15.0209C2.77554 15.0209 2.69304 15.0605 2.69304 15.1378V15.3165H3.04368V15.1378C3.04368 15.0605 2.96804 15.0209 2.87179 15.0209Z" fill="#6D6969"/>
<path d="M2.03045 14.0466H3.70881C3.86865 14.0466 3.99756 14.1892 3.99756 14.3663V14.9816C3.99756 15.1586 3.86865 15.3013 3.70881 15.3013H2.03045C1.87061 15.3013 1.7417 15.1586 1.7417 14.9816V14.3663C1.7417 14.1892 1.87061 14.0466 2.03045 14.0466Z" fill="#6D6969"/>
<path d="M10.1249 13.9348L9.90493 13.9486C9.95907 15.5221 9.53883 16.5593 8.8943 17.1936C8.24976 17.8278 7.37148 18.065 6.4743 18.0117C5.57711 17.9584 4.66444 17.6052 3.98566 17.0698C3.30687 16.5345 2.86502 15.8255 2.86502 15.0417H2.64502C2.64502 15.9079 3.1383 16.6839 3.85502 17.2485C4.57174 17.8131 5.51534 18.1749 6.4607 18.2316C7.40602 18.2884 8.35648 18.0306 9.05252 17.3448C9.74862 16.659 10.1808 15.5513 10.1249 13.9348Z" fill="#6D6969"/>
<path d="M6.30615 5.30663L6.32334 5.42694C6.32334 5.42694 6.60091 7.3588 6.94209 9.42302C7.1131 10.4551 7.29702 11.5173 7.47491 12.3965C7.6528 13.2758 7.8092 13.9546 7.95616 14.2614L8.16241 14.1669C8.04553 13.9236 7.86677 13.2276 7.68976 12.3536C7.51273 11.4796 7.32711 10.4191 7.15694 9.38864C6.82608 7.38974 6.57084 5.63236 6.55537 5.52148H9.73503V5.30663L6.30615 5.30663Z" fill="#6D6969"/>
</svg>
