<svg width="18" height="18" viewBox="0 0 18 18" fill="none" xmlns="http://www.w3.org/2000/svg">
<path d="M17.3435 13.868C17.356 13.5407 17.2177 12.7907 16.0466 11.6204C14.4294 10.0032 12.6786 9.1626 11.7146 8.1986L5.26618 1.7486C5.17712 1.65953 5.04586 1.64625 4.974 1.71813L4.53728 2.15485C4.46462 2.2275 4.47868 2.35797 4.56775 2.44703L16.5841 14.4634C16.6732 14.5517 16.8045 14.5658 16.8763 14.4939L17.313 14.0572C17.3599 14.0103 17.3661 13.9375 17.3435 13.868Z" fill="#6D6969"/>
<path d="M9.16572 3.7664C8.90244 3.45312 8.76416 3.10312 8.63056 2.76406C8.58134 2.63906 8.53134 2.51094 8.47431 2.38672C8.25087 1.8914 8.01727 1.53126 7.73993 1.25468C7.72743 1.24218 7.71493 1.22968 7.70243 1.21796C7.6329 1.15156 7.39227 1.0078 7.19853 0.892964C7.01259 0.782808 6.86885 0.695308 6.76025 0.621864L5.56885 1.81248L9.61025 5.85388L11.0298 4.43434C10.4001 4.50075 9.75011 4.36169 9.27275 3.88434C9.23681 3.84684 9.20009 3.80703 9.16572 3.7664Z" fill="#6D6969"/>
<path d="M7.36369 0.333619C8.08087 0.333619 8.80431 0.800019 9.16525 1.49534C9.25197 1.66253 9.32853 1.84456 9.40901 2.03674C9.68947 2.7055 10.0074 3.4633 10.8817 3.73518C11.0035 3.77346 11.1395 3.81799 11.2715 3.86409C11.0824 3.91018 10.891 3.9344 10.7082 3.9344C10.3668 3.9344 9.88869 3.85002 9.55041 3.44846C9.34417 3.20314 9.22853 2.91018 9.10587 2.59846C9.05352 2.46486 9.0004 2.3305 8.94024 2.19612C8.67774 1.6133 8.39414 1.18752 8.04806 0.856277C7.94103 0.753933 7.74962 0.636737 7.44572 0.456277C7.38791 0.421901 7.31682 0.379715 7.24651 0.336745C7.28557 0.334401 7.32462 0.333619 7.36369 0.333619ZM7.36369 2.00272e-05C7.20041 2.00272e-05 7.03479 0.020332 6.86993 0.06252C6.72697 0.0633012 6.65665 0.185176 6.66525 0.30706C6.66447 0.434404 7.61525 0.90394 7.81759 1.09768C8.17931 1.44378 8.43243 1.88128 8.63635 2.33362C8.84573 2.79768 8.96135 3.26566 9.29573 3.6633C9.65745 4.09298 10.1746 4.26798 10.7082 4.26798C11.1965 4.26798 11.6989 4.12189 12.1082 3.88986C12.2207 3.82658 11.2793 3.51018 10.9809 3.4172C10.034 3.12188 9.85979 2.11016 9.46057 1.3414C9.06057 0.56952 8.23549 2.00272e-05 7.36369 2.00272e-05Z" fill="#6D6969"/>
<path d="M8.73794 8.0274L3.81134 3.1C3.74337 3.03203 3.69181 2.95468 3.64884 2.875C3.31368 2.79062 2.91212 2.72734 2.43946 2.72734C0.95274 2.72734 0.70508 3.67734 0.58086 4.04922C0.457422 4.4211 0.3332 6.32102 1.36602 8.71642C1.36602 9.37736 0.2918 12.9296 0.74648 16.936C0.829292 18.0095 2.56366 16.2751 2.97688 14.7056C3.39016 13.1361 4.00892 11.236 4.91828 11.0298C5.82688 11.2361 6.4464 13.136 6.8589 14.7056C7.27218 16.2752 9.0065 18.0096 9.0893 16.936C9.54398 12.9298 8.46976 9.37742 8.46976 8.71642C8.57054 8.48126 8.65726 8.25236 8.73772 8.02736L8.73794 8.0274Z" fill="#6D6969"/>
</svg>
