<svg width="21" height="20" viewBox="0 0 21 20" fill="none" xmlns="http://www.w3.org/2000/svg">
<g clip-path="url(#clip0_744_3732)">
<path d="M20.0319 13.5405C19.5577 12.5124 15.3647 11.7209 15.3647 11.7209C14.653 13.5397 12.0437 17.6771 12.0437 17.6771C12.0437 17.6771 9.43348 13.5395 8.72108 11.7209C8.72108 11.7209 4.52968 12.5123 4.05468 13.5405C3.58046 14.5686 3.5 18.4445 3.5 19.3937H20.586C20.586 18.4445 20.5063 14.5687 20.0321 13.5405H20.0319ZM18.0287 17.3093H14.4123V16.3288H18.0287V17.3093Z" fill="#6D6969"/>
<path d="M16.7764 4.62568C16.5811 3.37412 16.0397 2.52728 15.3889 1.95468V1.71484C15.3889 1.19062 15.3796 1.05156 15.0538 0.90234C14.5342 0.66328 13.1616 0 12.0428 0C10.9239 0 9.55137 0.66328 9.03037 0.90234C8.70615 1.05156 8.69677 1.18984 8.69677 1.71484V1.95468C8.04521 2.52812 7.50381 3.37422 7.30927 4.62568C6.69209 8.60068 7.44208 9.72728 6.72803 10.7961C6.72803 10.7961 7.55537 11.4797 9.29523 11.189C9.98585 12.0523 10.9023 12.6578 12.0428 12.6578C13.1827 12.6578 14.099 12.0516 14.7888 11.189C16.5302 11.4797 17.3576 10.7961 17.3576 10.7961C16.6443 9.72812 17.3928 8.60068 16.7764 4.62568ZM10.9858 1.58808H11.6475V0.92558H12.4374V1.58808H13.1007V2.37792H12.4366V3.03964H11.6468V2.37714H10.985V1.58808H10.9858ZM15.6304 8.17248L15.3906 8.2092L15.3234 8.4428C14.864 10.0373 13.7304 11.899 12.0438 11.899C10.3572 11.899 9.2234 10.0373 8.7642 8.4428L8.69701 8.2092L8.45717 8.17248C8.27436 8.14436 7.89623 8.08732 7.83841 7.22794C7.81263 6.84748 7.90326 6.6467 8.02826 6.5295C8.04232 6.58731 8.05951 6.64513 8.07826 6.70372C8.19622 7.05918 8.3353 7.6131 8.3978 7.0295C8.46498 6.40918 8.98842 5.90216 10.5602 5.517C12.1321 5.13106 13.5548 3.79668 13.5548 3.79668C13.5548 3.79668 14.09 5.01308 14.8306 5.69512C15.572 6.37716 15.6321 6.85762 15.6321 7.2545C15.6321 7.58184 15.9056 7.14278 16.0712 6.53732C16.1907 6.65607 16.2782 6.85764 16.2524 7.2295C16.1923 8.08732 15.8132 8.14436 15.6304 8.17248Z" fill="#6D6969"/>
<path d="M12.0427 16.7779C12.5333 15.981 13.3778 14.5795 14.0537 13.3295C13.4982 13.4795 12.8068 13.6068 12.0427 13.6068C11.2786 13.6068 10.5856 13.4803 10.0303 13.3295C10.7076 14.5795 11.5522 15.9811 12.0427 16.7779Z" fill="#6D6969"/>
</g>
<defs>
<clipPath id="clip0_744_3732">
<rect width="20" height="20" fill="white" transform="translate(0.5)"/>
</clipPath>
</defs>
</svg>
