<svg width="21" height="20" viewBox="0 0 21 20" fill="none" xmlns="http://www.w3.org/2000/svg">
<g clip-path="url(#clip0_744_3795)">
<path d="M4.00021 9.6624C4.01349 9.53896 3.9963 9.41162 3.93927 9.32334L4.24395 8.82724H4.46505C4.62833 9.65614 6.36739 9.6749 6.43067 8.84521C6.43536 8.78427 6.42442 8.72489 6.40802 8.66708L6.42208 8.65927L6.33146 8.24051L6.30646 8.23738L6.07364 8.26395C5.48692 7.89833 4.6252 8.09676 4.47832 8.59363H4.1127L3.72988 9.21785C3.63925 9.22019 3.53847 9.25769 3.4502 9.31941C3.66582 9.38113 3.85645 9.50303 4.00021 9.6624Z" fill="#6D6969"/>
<path d="M9.9813 9.3782C9.99693 9.3907 10.0188 9.38757 10.0344 9.38132L10.1938 9.2907L10.2344 9.2282L9.97819 8.88132L9.94069 8.89382L9.71257 9.05319C9.69382 9.06882 9.68757 9.10007 9.70319 9.12507C9.76257 9.23445 9.85943 9.31883 9.9813 9.3782Z" fill="#6D6969"/>
<path d="M15.1656 18.6438C15.2219 17.5063 15.3344 16.3282 15.4437 15.1876C15.0375 15.3376 14.6 15.4626 14.1406 15.5626L14.7219 18.6438H15.1656Z" fill="#6D6969"/>
<path d="M11.0249 8.88759L11.2124 9.44697L14.6906 9.44385H15.5937C15.5562 9.23135 15.5031 9.03761 15.4375 8.86573L14.6187 6.41573L11.0249 8.88759Z" fill="#6D6969"/>
<path d="M9.09234 8.08439C9.35016 8.0297 9.56578 7.85315 9.6689 7.61017L10.1892 6.38595L10.722 7.98127C12.6869 6.21095 12.0822 6.87033 13.5744 4.90947L13.6565 5.05791C12.1541 7.02979 12.8994 6.23135 10.0877 8.76491L10.3697 9.14773L14.7157 6.16013C14.9977 5.96638 15.1001 5.59763 14.9579 5.28669L14.0508 3.29763C13.904 2.97653 13.5391 2.81717 13.204 2.92887C13.0665 2.97496 12.1782 3.26949 12.0282 3.31949C12.3547 4.27027 11.118 4.68903 10.8157 3.72573C10.5219 3.82417 9.98287 4.00619 9.68913 4.10385C9.45475 4.18276 9.27975 4.38041 9.23131 4.62339L8.73599 7.36159L6.49219 8.23737L6.57422 8.61393L9.09234 8.08439Z" fill="#6D6969"/>
<path d="M9.45634 1.77187C9.45946 1.75781 9.49852 1.63203 9.50321 1.61875H9.61884L10.9688 1.16875L11.1001 1.56563C11.7048 1.34531 12.1337 2.15625 11.8095 2.66875L11.9188 2.99375C12.2657 2.60625 12.4845 1.95937 12.3188 1.46251C12.072 0.721891 11.2751 0.325011 10.5376 0.571891L9.05322 1.06565C9.18369 1.46097 9.20009 1.70079 9.45634 1.77187Z" fill="#6D6969"/>
<path d="M11.0206 1.81875L10.869 1.36563C10.8393 1.37501 9.65025 1.77501 9.61901 1.77501C9.34791 2.63985 9.99479 3.50235 10.8979 3.47969L10.9995 3.78359C11.201 4.38749 12.1198 4.08515 11.9167 3.47735L11.7909 3.10079C11.7596 3.00704 11.6659 2.72735 11.637 2.64141C12.0518 2.16641 11.412 1.34923 11.0206 1.81875Z" fill="#6D6969"/>
<path d="M2.22481 11.525H3.55919C3.64982 11.4656 3.73107 11.3937 3.79981 11.3188L3.62169 11.3C3.51544 11.3875 3.37793 11.4375 3.23107 11.4406H3.20607C2.88419 11.4406 2.62795 11.2312 2.61857 10.9594C2.61544 10.9031 2.62482 10.85 2.64357 10.8L2.29357 10.7594L2.42482 9.5875L2.3967 9.475C2.50607 9.43282 2.5342 9.41875 2.5342 9.41875C2.42404 9.25 2.24202 9.27579 1.9217 9.24063L1.7842 10.4969C1.73732 10.9094 1.91857 11.2938 2.22481 11.525Z" fill="#6D6969"/>
<path d="M2.93458 10.675C2.83458 10.7437 2.76896 10.8437 2.77208 10.9531C2.78146 11.1437 2.98146 11.2937 3.2252 11.2844C3.36895 11.2812 3.49082 11.2219 3.56896 11.1375L4.17208 11.2031C4.20958 10.8836 4.27208 10.5703 4.45332 10.2531L4.12832 10.2156C3.94786 9.53904 3.18536 9.21638 2.58144 9.56872C2.58613 9.58747 2.46816 10.6023 2.46582 10.6218L2.93458 10.675Z" fill="#6D6969"/>
<path d="M4.28762 11.525H4.86886C4.99073 10.9469 5.1384 10.4875 5.32198 9.87811C4.56026 9.82264 4.37668 10.7953 4.28762 11.525Z" fill="#6D6969"/>
<path d="M13.9499 15.6062C12.3156 15.9468 10.4623 16.0374 8.95614 16.0374C7.99052 16.0374 7.09364 16.0031 6.37174 15.9593V18.8007L3.56934 18.8015V19.5015H16.7529V18.8015H13.9497L13.9499 15.6062Z" fill="#6D6969"/>
<path d="M4.76553 12.0312C4.78428 11.9124 4.80615 11.7968 4.83428 11.6812H1.68428C1.17178 11.6812 0.734277 12.0062 0.571777 12.4624H4.69358C4.71233 12.3187 4.7374 12.1749 4.76553 12.0312Z" fill="#6D6969"/>
<path d="M19.0689 11.6812H17.4408V12.1843H17.3939C17.3846 12.2718 17.3721 12.3656 17.3564 12.4624H20.1814C20.0189 12.0062 19.5814 11.6812 19.0689 11.6812Z" fill="#6D6969"/>
<path d="M4.6718 12.6188H0.5V13.1125H4.6124C4.62803 12.9469 4.6468 12.7813 4.6718 12.6188Z" fill="#6D6969"/>
<path d="M20.2534 12.6188H17.3316C17.3035 12.7782 17.2691 12.9438 17.2285 13.1125H20.2535C20.3879 13.1125 20.5004 13.0032 20.5004 12.8657C20.5004 12.7282 20.3878 12.6188 20.2534 12.6188Z" fill="#6D6969"/>
<path d="M6.34579 9.593C5.60439 9.35394 5.58017 9.56409 5.58017 9.56409C5.19893 10.8329 4.78329 12.0273 4.71377 13.9181L4.64893 15.6673C4.64893 15.6673 12.7935 16.5775 16.2599 14.6556C16.9568 14.09 17.1818 12.7306 17.2529 12.0274H17.2857V10.7462C17.2857 10.1149 16.7732 9.60239 16.1419 9.60239H6.40054C6.38257 9.59848 6.36376 9.59534 6.34579 9.593Z" fill="#6D6969"/>
</g>
<defs>
<clipPath id="clip0_744_3795">
<rect width="20" height="20" fill="white" transform="translate(0.5)"/>
</clipPath>
</defs>
</svg>
