<svg width="25" height="25" viewBox="0 0 25 25" fill="none" xmlns="http://www.w3.org/2000/svg">
<g clip-path="url(#clip0_1052_2740)">
<path d="M18.3595 11.7188C18.3595 12.7451 18.0763 13.7061 17.5851 14.5263L7.51581 4.457C7.98943 1.92 10.2161 0 12.8908 0C15.9113 0 18.3596 2.44825 18.3596 5.46875L18.3595 11.7188Z" fill="white" fill-opacity="0.6"/>
<path d="M17.9513 18.665L21.713 22.4278C22.0187 22.7325 22.5128 22.7325 22.8185 22.4278C23.1232 22.1221 23.1232 21.628 22.8185 21.3223L4.03523 2.54005C3.73053 2.23535 3.23543 2.23535 2.93073 2.54005C2.62603 2.84475 2.62603 3.33985 2.93073 3.64455L7.42199 8.1358V11.7188C7.42199 14.7393 9.87024 17.1876 12.8907 17.1876C13.9171 17.1876 14.878 16.9043 15.6982 16.4131L16.8301 17.544C15.706 18.3057 14.3506 18.75 12.8906 18.75C9.00781 18.75 5.85931 15.6015 5.85931 11.7188C5.85931 11.2871 5.50971 10.9375 5.07806 10.9375C4.64641 10.9375 4.29681 11.2871 4.29681 11.7188C4.29681 16.2013 7.72931 19.8828 12.1093 20.2773V23.4375H8.98431C8.55266 23.4375 8.20306 23.7871 8.20306 24.2188C8.20306 24.6504 8.55266 25 8.98431 25H16.7968C17.2285 25 17.5781 24.6504 17.5781 24.2188C17.5781 23.7871 17.2285 23.4375 16.7968 23.4375H13.6718V20.2773C15.2626 20.1337 16.7295 19.5566 17.9513 18.665Z" fill="white" fill-opacity="0.6"/>
<path d="M18.7158 15.6582L19.8369 16.7793C20.873 15.3593 21.4844 13.6103 21.4844 11.7188C21.4844 11.2871 21.1348 10.9375 20.7031 10.9375C20.2715 10.9375 19.9219 11.2871 19.9219 11.7188C19.9219 13.1787 19.4775 14.5342 18.7158 15.6582Z" fill="white" fill-opacity="0.6"/>
</g>
<defs>
<clipPath id="clip0_1052_2740">
<rect width="25" height="25" fill="white"/>
</clipPath>
</defs>
</svg>
