<svg width="21" height="20" viewBox="0 0 21 20" fill="none" xmlns="http://www.w3.org/2000/svg">
<path d="M12.8168 8.05C12.6965 7.6164 11.0691 7.23906 10.4996 7.23906C9.9277 7.23906 8.30279 7.6164 8.18079 8.05C7.99797 8.70078 8.02454 10.3352 8.12844 11.1742C8.12844 11.1742 8.8425 12.2054 10.4994 12.2054C12.1549 12.2054 12.8704 11.1742 12.8704 11.1742C12.9728 10.3359 12.9986 8.7008 12.8165 8.05H12.8168Z" fill="#6D6969"/>
<path d="M10.4987 2.7524C9.60342 2.7524 8.87842 3.47818 8.87842 4.37272C8.87842 5.26882 9.6042 5.99382 10.4987 5.99382C11.3941 5.99382 12.1191 5.26804 12.1191 4.37272C12.1198 3.47818 11.3941 2.7524 10.4987 2.7524ZM10.4987 5.1642C10.062 5.1642 9.70812 4.80952 9.70812 4.37358C9.70812 3.93764 10.062 3.58296 10.4987 3.58296C10.9347 3.58296 11.2886 3.93764 11.2886 4.37358C11.2886 4.80952 10.9347 5.1642 10.4987 5.1642Z" fill="#6D6969"/>
<path d="M7.7196 9.2624C7.50866 8.84522 7.3407 8.40928 7.22038 7.99052L7.15241 7.7577L6.91257 7.7202C6.72976 7.69208 6.35164 7.63348 6.29226 6.77566C6.27507 6.50612 6.31569 6.328 6.38522 6.20378C6.43991 6.32409 6.49225 6.44988 6.53288 6.59128C6.72585 7.25222 7.00866 6.9405 7.00866 6.9405C6.95788 6.4569 7.05241 5.92566 7.20397 5.42488C6.75319 5.31394 6.29615 5.16628 5.90241 4.97644C5.90475 5.0155 5.9071 5.04597 5.90866 5.06941C5.91725 5.20925 5.95944 5.34285 6.01882 5.47723C5.7407 5.71239 5.48758 6.12019 5.53444 6.82723C5.60397 7.85847 6.086 8.26629 6.55476 8.41473C6.8157 9.23505 7.2157 10.0655 7.75398 10.7381C7.72038 10.2905 7.7071 9.76162 7.7196 9.2624Z" fill="#6D6969"/>
<path d="M14.9804 5.47739C15.0397 5.34302 15.0819 5.21021 15.0905 5.06957C15.0921 5.04926 15.0944 5.01801 15.0968 4.97739C14.7015 5.16723 14.246 5.31567 13.7952 5.42583C13.9468 5.92583 14.0429 6.45707 13.9905 6.94067C13.9905 6.94067 14.2734 7.25239 14.4679 6.59145C14.5093 6.45004 14.5601 6.32427 14.6155 6.20395C14.6843 6.32816 14.7257 6.50629 14.7077 6.77583C14.6499 7.63365 14.2694 7.69223 14.0874 7.72037L13.846 7.75787L13.7788 7.99147C13.6585 8.41101 13.4897 8.84851 13.2772 9.26647C13.2897 9.76491 13.2757 10.293 13.2437 10.7407C13.7835 10.0672 14.1851 9.23679 14.4437 8.41489C14.9124 8.26645 15.3937 7.85865 15.464 6.82817C15.5124 6.12035 15.2601 5.71255 14.9804 5.47739Z" fill="#6D6969"/>
<path d="M8.45972 4.3734C8.45972 3.24762 9.37378 2.3352 10.4987 2.3352C11.6245 2.3352 12.5369 3.2477 12.5369 4.3734C12.5369 4.73668 12.4338 5.07184 12.2682 5.36716C13.3502 5.23044 14.4252 4.97576 15.1112 4.60076C15.1112 4.60076 15.094 1.68356 14.7346 1.25316C14.3776 0.822702 12.215 0.303162 10.5018 0.303162H10.5002H10.4987C8.78462 0.303162 6.62208 0.823482 6.26348 1.25316C5.90488 1.68362 5.8877 4.60156 5.8877 4.60156C6.57442 4.97578 7.64786 5.23046 8.7299 5.36796C8.56271 5.07186 8.45972 4.7367 8.45972 4.3734Z" fill="#6D6969"/>
<path d="M18.4892 13.8446C18.015 12.8165 13.822 11.5508 13.822 11.5508C13.1103 13.3696 10.501 15.1102 10.501 15.1102C10.501 15.1102 9.65023 15.743 9.15647 15.8813C9.15647 15.8813 9.66663 15.3555 10.0221 14.7641C9.23459 14.168 7.69949 12.8821 7.17909 11.5509C7.17909 11.5509 2.98769 12.8173 2.51269 13.8447C2.03769 14.8721 1.95801 18.7487 1.95801 19.6971H19.0424C19.0424 18.7487 18.9634 14.872 18.4892 13.8446ZM16.486 17.6126H12.8696V16.6321H16.486V17.6126Z" fill="#6D6969"/>
</svg>
