<svg width="23" height="22" viewBox="0 0 23 22" fill="none" xmlns="http://www.w3.org/2000/svg">
<path d="M11.8149 6.7573C11.2082 6.7573 10.7149 7.25058 10.7149 7.85644V8.8009C10.7149 9.09565 10.8292 9.37239 11.038 9.5795C11.246 9.78575 11.5218 9.90004 11.8149 9.90004V10.6855H12.7576V9.90004C13.3643 9.90004 13.8576 9.40676 13.8576 8.80004V7.8573C13.8576 7.25058 13.3643 6.7573 12.7576 6.7573V6.36455H14.7221C14.8923 6.36455 15.0367 6.50807 15.0367 6.67909L15.0358 10.6855H16.6076V6.67821C16.6076 5.63835 15.762 4.79274 14.7221 4.79274H10.7148V6.36453H11.8148L11.8149 6.7573Z" fill="#6D6969"/>
<path d="M19.3575 11V15.7927H18.2283V13.0427C18.2283 12.1489 17.5013 11.4219 16.6075 11.4219H9.87949V14.6145H9.78152L9.18252 14.1995C9.24698 14.184 9.31057 14.1608 9.37073 14.1281C9.6483 13.9803 9.80987 13.6804 9.78237 13.3676C9.64487 11.7855 7.96394 10.4233 6.32507 10.5677C6.00539 10.5952 5.73382 10.8152 5.641 11.1228C5.56366 11.3789 5.62381 11.6513 5.79053 11.8516L4.88904 11.2277V13.1389L8.72276 15.7926H4.03566V11.078H2.46387V18.9353H4.03566V17.3635H9.8793V18.9843L10.3219 18.9851C10.9733 18.9851 11.317 18.6371 11.5688 18.3827C11.7966 18.1532 11.9177 18.0424 12.1876 18.0424C12.4574 18.0424 12.5786 18.1532 12.8063 18.3827C13.0581 18.637 13.4027 18.9851 14.0533 18.9851C14.7047 18.9851 15.0493 18.6371 15.3011 18.3827C15.5289 18.1524 15.65 18.0424 15.9199 18.0424C16.1897 18.0424 16.3117 18.1532 16.5386 18.3827C16.7904 18.637 17.135 18.9851 17.7864 18.9851H18.2281L18.2273 17.3643H19.3574V18.9361H20.9291L20.9283 10.9998L19.3575 11ZM17.344 17.93C17.2899 17.8836 17.2332 17.8269 17.167 17.7607C16.9152 17.5063 16.5706 17.1583 15.9192 17.1583C15.2678 17.1583 14.9232 17.5063 14.6714 17.7607C14.4436 17.991 14.3225 18.101 14.0526 18.101C13.7827 18.101 13.6616 17.9902 13.4339 17.7607C13.1821 17.5063 12.8375 17.1583 12.1869 17.1583C11.5355 17.1583 11.1917 17.5063 10.9399 17.7607C10.8746 17.8269 10.8179 17.8836 10.7629 17.93L10.7638 12.3064H16.6074C17.0139 12.3064 17.3439 12.6372 17.3439 13.0428L17.344 17.93Z" fill="#6D6969"/>
</svg>
