<svg width="25" height="24" viewBox="0 0 25 24" fill="none" xmlns="http://www.w3.org/2000/svg">
<path d="M8.64878 10.2571C8.57941 9.96745 8.3591 9.31964 8.57941 9.09838C8.79972 8.87901 8.93847 9.09838 8.93847 9.09838C8.8766 8.93619 8.85316 8.76183 8.8691 8.58838C9.12878 8.35401 9.42129 8.159 9.73816 8.00993C10.5941 7.57119 11.5438 7.349 12.5056 7.36119C13.4572 7.334 14.4022 7.53181 15.2627 7.93964C15.5824 8.11214 15.8749 8.33151 16.1308 8.58838L16.2115 8.66994L16.2124 8.67088C16.2124 8.79463 16.1852 8.91743 16.1308 9.02901C16.2115 8.94838 16.3512 8.87901 16.4318 8.94838C16.7093 9.16776 16.4318 9.96745 16.3502 10.2571H16.3512C16.2977 10.4343 16.2237 10.6059 16.1308 10.7662V10.8478C16.1308 10.9865 16.0615 11.2068 15.9105 11.2068C15.4127 13.1643 13.8021 14.832 12.575 14.832C11.1969 14.832 9.59853 13.1642 9.07725 11.2068C8.93851 11.2068 8.86819 10.9865 8.86819 10.8478L8.86913 10.6968C8.76507 10.5674 8.69003 10.4174 8.64878 10.2571ZM14.9723 14.6933C14.2429 15.342 13.4432 15.7827 12.5751 15.7827V15.7817C11.6414 15.7602 10.7536 15.3683 10.1086 14.6933C6.03151 17.0098 3.92383 15.6317 3.92383 21.2258H21.0773C21.0764 15.851 19.0383 17.01 14.9732 14.6933L14.9723 14.6933ZM12.5058 6.92137C9.95774 6.92137 8.79998 8.07917 8.79998 8.07917V4.16501C12.5058 1.03757 16.2822 4.16501 16.2822 4.16501V8.07917C16.2822 8.07917 14.9735 6.85198 12.5061 6.92137H12.5058ZM12.2049 5.32292V6.12166H12.7955V5.32292H13.5952V4.67417H12.7955V3.87449H12.2049V4.67417H11.4061V5.32292H12.2049Z" fill="#6D6969"/>
</svg>
