<svg width="21" height="20" viewBox="0 0 21 20" fill="none" xmlns="http://www.w3.org/2000/svg">
<path d="M19.3038 17.0164H17.7523C17.6444 17.0164 17.5562 16.9289 17.5562 16.8203V14.1757H3.44297V16.8211C3.44297 16.9289 3.35547 17.0172 3.24687 17.0172H1.69609C1.5875 17.0164 1.5 16.9289 1.5 16.8211V3.86411C1.5 3.37817 1.89532 2.98365 2.38046 2.98365H2.56249C3.04843 2.98365 3.44295 3.37897 3.44295 3.86411V11.5681H18.532C19.071 11.5681 19.5101 12.0072 19.5101 12.5462L19.4999 16.8212C19.4999 16.929 19.4124 17.0164 19.3038 17.0164Z" fill="#6D6969"/>
<path d="M6.30244 8.4078C5.38526 8.4078 4.63916 7.6617 4.63916 6.74452C4.63916 5.82734 5.38526 5.08202 6.30244 5.08202C7.21962 5.08202 7.96494 5.82812 7.96494 6.74452C7.96572 7.6617 7.21962 8.4078 6.30244 8.4078Z" fill="#6D6969"/>
<path d="M17.9778 6.6234C17.9778 5.86872 17.3638 5.25386 16.6083 5.25386H9.51228C9.08104 5.25386 8.72946 5.60464 8.72946 6.03668V9.02268H5.37706C4.9669 9.02268 4.6333 9.35628 4.6333 9.76644V9.95941C4.6333 10.3696 4.9669 10.7032 5.37706 10.7032H17.9889L17.9778 6.6234Z" fill="#6D6969"/>
</svg>
