<svg width="31" height="30" viewBox="0 0 31 30" fill="none" xmlns="http://www.w3.org/2000/svg">
<path fill-rule="evenodd" clip-rule="evenodd" d="M11.2142 30H4.07172C3.67664 30 3.35654 29.6799 3.35654 29.2862V15.7138H1.21366C0.925711 15.7138 0.664533 15.5397 0.554715 15.2732C0.443552 15.0067 0.505161 14.6986 0.708735 14.4951L14.9951 0.208928C15.2737 -0.0696428 15.7263 -0.0696428 16.0049 0.208928L30.2913 14.4951C30.4948 14.6987 30.5564 15.0067 30.4453 15.2732C30.3355 15.5397 30.0743 15.7138 29.7863 15.7138H27.6435V29.2862C27.6435 29.6799 27.3234 30 26.9283 30H19.7858C19.597 30 19.4148 29.925 19.2809 29.7911C19.1469 29.6571 19.0719 29.475 19.0719 29.2861V20.7147C19.0719 20.3197 18.7518 19.9996 18.3568 19.9996H12.6433C12.2482 19.9996 11.9281 20.3196 11.9281 20.7147V29.2861C11.9281 29.475 11.8531 29.6571 11.7192 29.7911C11.5853 29.925 11.4031 30 11.2142 30Z" fill="#BDB6B6"/>
</svg>
