<svg width="36" height="30" viewBox="0 0 36 30" fill="none" xmlns="http://www.w3.org/2000/svg">
<path d="M35.0511 26.9745L19.8405 1.27302C18.8287 -0.440332 17.1716 -0.416206 16.1597 1.29711L0.949143 26.9631C-0.062609 28.6764 0.693468 30 2.62949 30H33.3692C35.3066 30 36.0628 28.685 35.0511 26.9745ZM17.9879 6.96156C18.9613 6.96156 19.7161 8.07685 19.6655 9.44014L19.3565 17.6541C19.3073 19.016 18.6879 20.1312 17.9838 20.1312C17.2783 20.1312 16.6589 19.016 16.6097 17.6541L16.3048 9.44014C16.2556 8.07685 17.0116 6.96156 17.9879 6.96156ZM17.9879 26.3182C16.7587 26.3182 15.9151 25.3872 15.9411 24.1146C15.9411 22.8136 16.786 21.9109 17.9879 21.9109C19.2402 21.9109 20.0319 22.8151 20.0592 24.1146C20.0579 25.3872 19.2403 26.3182 17.9879 26.3182Z" fill="#BDB6B6"/>
</svg>
