<svg width="30" height="33" viewBox="0 0 30 33" fill="none" xmlns="http://www.w3.org/2000/svg">
<path fill-rule="evenodd" clip-rule="evenodd" d="M22.7363 13.597C23.9987 14.587 25.1944 15.671 26.2295 16.8072C26.858 16.17 27.4171 15.5328 27.9013 14.9063C29.7786 12.4742 30.5036 10.2179 29.6344 8.71131L29.6262 8.69789C28.3679 6.61054 24.6746 6.70443 21.6275 7.35236C22.2029 9.32035 22.5636 11.4613 22.7363 13.597ZM15.8057 9.28156C17.5945 8.49275 19.3358 7.89716 20.9558 7.50408C21.47 9.25608 21.8087 11.1409 21.9937 13.0297C20.107 11.6306 17.9784 10.34 15.8057 9.28156ZM14.1257 24.6215C13.028 24.1279 11.9139 23.5645 10.8025 22.9326C10.7889 22.9259 10.7753 22.9178 10.7617 22.9098V22.9085C10.2856 22.6375 9.819 22.3584 9.36601 22.0754C9.57006 23.441 9.84891 24.7221 10.1931 25.8905C11.4935 25.5725 12.8307 25.1353 14.1257 24.6215ZM20.6757 26.776C19.6977 29.6588 17.9347 32.6973 15.5747 32.6973C13.1276 32.6973 11.343 29.4428 10.3947 26.5397C11.9332 26.1641 13.4921 25.6315 14.9995 24.9997C16.991 25.8341 18.9171 26.4297 20.6761 26.7758L20.6757 26.776ZM15.8711 24.6215C17.6313 25.3205 19.3276 25.8249 20.885 26.1254C21.3312 24.6658 21.6754 23.0225 21.8957 21.2505C20.0049 22.537 17.9511 23.6865 15.8711 24.6215ZM22.0715 13.9446C22.2252 16.0628 22.1994 18.2627 21.9939 20.3542C19.8379 21.8728 17.4139 23.2263 14.9978 24.262C13.6933 23.7026 12.4541 23.0842 11.1251 22.3316V22.3329C10.4422 21.9345 9.89263 21.6098 9.24515 21.1927C8.92139 18.5499 8.89012 15.7182 9.15265 13.0419C10.9646 11.7661 12.9739 10.6017 14.9978 9.65057C17.4981 10.823 19.9483 12.3079 22.0715 13.9446ZM25.743 17.2889C24.8547 18.1434 23.8467 18.9939 22.7353 19.819C22.8768 18.0844 22.8986 16.2776 22.8006 14.5227C23.8617 15.3906 24.8696 16.327 25.743 17.2889ZM10.1116 7.78846C9.73887 9.11521 9.44777 10.5788 9.25325 12.1417C10.804 11.0873 12.4908 10.1093 14.1913 9.28029C12.7902 8.66319 11.4189 8.1641 10.1116 7.78846ZM3.76842 16.8074C5.03894 15.4123 6.64003 14.0023 8.49959 12.6702C8.69411 10.8444 9.01923 9.13674 9.4491 7.60748C6.32857 6.79587 1.80143 6.30893 0.364952 8.71151C-0.504286 10.218 0.22076 12.4744 2.09799 14.9065C2.5809 15.533 3.13996 16.1702 3.76842 16.8074ZM8.49541 20.695C6.88888 19.603 5.46194 18.4493 4.25526 17.2889C5.38568 16.0427 6.7895 14.783 8.41358 13.5768C8.22177 15.9258 8.24919 18.3741 8.49541 20.695ZM19.8173 1.4324C18.9971 0.623471 17.5865 1.19898 17.5865 2.34326C17.5865 3.48754 18.9957 4.06439 19.8173 3.25412C20.3288 2.75108 20.3288 1.93548 19.8173 1.4324ZM17.2436 1.23386C16.7349 0.901173 16.1772 0.697266 15.5745 0.697266C13.8102 0.697266 12.186 2.44522 10.9848 5.27303C10.7385 5.85255 10.5114 6.47634 10.3046 7.13771C11.805 7.56966 13.3871 8.15994 14.9989 8.89909C16.9958 7.98283 18.9479 7.29733 20.7556 6.85466C20.4305 5.85928 20.0578 4.9578 19.6456 4.16765C18.341 4.69082 16.8978 3.74373 16.8978 2.34188C16.8964 1.93139 17.0243 1.54906 17.2433 1.23379L17.2436 1.23386ZM27.4624 19.4861C27.2651 19.6377 27.0937 19.8282 26.9618 20.0549C26.1565 21.4312 27.2542 23.1215 28.8403 23.0034C28.8784 23.6044 28.7791 24.1826 28.4771 24.6978C27.4705 26.4175 24.6287 26.7301 21.5681 26.2458C22.0646 24.6011 22.4359 22.735 22.6509 20.7243C23.9718 19.7785 25.162 18.7925 26.1946 17.8025C26.6775 18.37 27.1019 18.9347 27.4624 19.4861ZM4.45285 26.4551C4.15086 27.5659 5.36834 28.4768 6.36952 27.9053C7.37071 27.3352 7.1789 25.8408 6.05393 25.5429C5.35474 25.3592 4.64059 25.7656 4.45285 26.4551ZM3.80805 26.2097C2.83953 25.9615 2.00972 25.5121 1.51459 24.6844C0.645353 23.1779 1.3704 20.9215 3.24763 18.4894C3.42311 18.2613 3.60949 18.0319 3.80537 17.8025C5.15615 19.0984 6.77491 20.3836 8.60166 21.5857C8.81251 23.1888 9.12537 24.6886 9.52122 26.0433C8.87778 26.1801 8.25614 26.2834 7.66169 26.3518C7.61953 26.1681 7.54471 25.9762 7.44405 25.8059C6.56938 24.3141 4.31666 24.5784 3.80805 26.2097ZM18.5061 13.8063H12.6432V19.5881H18.5061V13.8063ZM12.2978 13.1248C12.1073 13.1248 11.9522 13.2777 11.9522 13.4655V14.5508H10.6994C10.245 14.5508 10.245 15.231 10.6994 15.231L11.9522 15.2323V15.7555H11.2313C10.7769 15.7555 10.7769 16.4356 11.2313 16.4356H11.9522V16.9588H10.6994C10.245 16.9588 10.245 17.6389 10.6994 17.6389H11.9522V18.1621H11.2313C10.7769 18.1621 10.7769 18.8422 11.2313 18.8422H11.9522V19.9275C11.9522 20.1153 12.1073 20.2683 12.2978 20.2683H13.3983V20.9793C13.3983 21.4273 14.0879 21.4273 14.0879 20.9793V20.2683H14.6185V21.5038C14.6185 21.9519 15.3081 21.9519 15.3081 21.5038V20.2683H15.8386V20.9793C15.8386 21.4273 16.5283 21.4273 16.5283 20.9793V20.2683H17.0588V21.5038C17.0588 21.9519 17.7485 21.9519 17.7485 21.5038V20.2683H18.8504C19.0408 20.2683 19.1959 20.1153 19.1959 19.9275V18.8422H19.9169C20.3712 18.8422 20.3712 18.1621 19.9169 18.1621H19.1959V17.6389H20.4488C20.9031 17.6389 20.9031 16.9588 20.4488 16.9588H19.1959V16.4356H19.9169C20.3712 16.4356 20.3712 15.7555 19.9169 15.7555H19.1959V15.2323H20.4488C20.9031 15.2323 20.9031 14.5521 20.4488 14.5521H19.1959V13.4669C19.1959 13.2791 19.0408 13.1261 18.8504 13.1261H17.7485V11.8906C17.7485 11.4425 17.0588 11.4425 17.0588 11.8906V13.1261H16.5283V12.4151C16.5283 11.9671 15.8386 11.9671 15.8386 12.4151V13.1261H15.3081V11.8906C15.3081 11.4425 14.6185 11.4425 14.6185 11.8906V13.1261H14.0879V12.4151C14.0879 11.9671 13.3983 11.9671 13.3983 12.4151V13.1261H12.2978V13.1248ZM16.7378 15.5502H14.4103V17.8455H16.7378V15.5502ZM14.0661 14.8687C13.8757 14.8687 13.7206 15.0216 13.7206 15.2095V18.1849C13.7206 18.3727 13.8757 18.5256 14.0661 18.5256H17.0833C17.2738 18.5256 17.4288 18.3727 17.4288 18.1849V15.2095C17.4288 15.0216 17.2738 14.8687 17.0833 14.8687H14.0661ZM29.8319 21.6674C30.3897 20.6814 29.4728 19.4969 28.3506 19.7934C27.2256 20.0912 27.0338 21.5856 28.035 22.1558C28.658 22.5113 29.4252 22.3194 29.8319 21.6674Z" fill="#BDB6B6"/>
</svg>
