<svg width="30" height="33" viewBox="0 0 30 33" fill="none" xmlns="http://www.w3.org/2000/svg">
<path fill-rule="evenodd" clip-rule="evenodd" d="M22.7363 13.5971C23.9987 14.5871 25.1944 15.6711 26.2295 16.8073C26.858 16.1701 27.4171 15.5329 27.9013 14.9064C29.7786 12.4743 30.5036 10.218 29.6344 8.71143L29.6262 8.69802C28.3679 6.61066 24.6746 6.70455 21.6275 7.35249C22.2029 9.32047 22.5636 11.4614 22.7363 13.5971ZM15.8057 9.28168C17.5945 8.49288 19.3358 7.89728 20.9558 7.5042C21.47 9.2562 21.8087 11.141 21.9937 13.0299C20.107 11.6307 17.9784 10.3401 15.8057 9.28168ZM14.1257 24.6217C13.028 24.128 11.9139 23.5646 10.8025 22.9327C10.7889 22.926 10.7753 22.918 10.7617 22.9099V22.9086C10.2856 22.6376 9.819 22.3586 9.36601 22.0755C9.57006 23.4412 9.84891 24.7223 10.1931 25.8906C11.4935 25.5726 12.8307 25.1355 14.1257 24.6217ZM20.6757 26.7761C19.6977 29.659 17.9347 32.6974 15.5747 32.6974C13.1276 32.6974 11.343 29.4429 10.3947 26.5398C11.9332 26.1642 13.4921 25.6316 14.9995 24.9998C16.991 25.8342 18.9171 26.4298 20.6761 26.7759L20.6757 26.7761ZM15.8711 24.6217C17.6313 25.3206 19.3276 25.825 20.885 26.1255C21.3312 24.6659 21.6754 23.0226 21.8957 21.2506C20.0049 22.5371 17.9511 23.6867 15.8711 24.6217ZM22.0715 13.9447C22.2252 16.0629 22.1994 18.2629 21.9939 20.3543C19.8379 21.8729 17.4139 23.2265 14.9978 24.2621C13.6933 23.7027 12.4541 23.0843 11.1251 22.3317V22.333C10.4422 21.9346 9.89263 21.61 9.24515 21.1928C8.92139 18.55 8.89012 15.7183 9.15265 13.042C10.9646 11.7662 12.9739 10.6018 14.9978 9.65069C17.4981 10.8232 19.9483 12.308 22.0715 13.9447ZM25.743 17.289C24.8547 18.1436 23.8467 18.994 22.7353 19.8191C22.8768 18.0845 22.8986 16.2777 22.8006 14.5228C23.8617 15.3908 24.8696 16.3272 25.743 17.289ZM10.1116 7.78859C9.73887 9.11533 9.44777 10.5789 9.25325 12.1418C10.804 11.0874 12.4908 10.1094 14.1913 9.28041C12.7902 8.66332 11.4189 8.16422 10.1116 7.78859ZM3.76842 16.8075C5.03894 15.4124 6.64003 14.0025 8.49959 12.6703C8.69411 10.8446 9.01923 9.13686 9.4491 7.6076C6.32857 6.79599 1.80143 6.30905 0.364952 8.71164C-0.504286 10.2181 0.22076 12.4745 2.09799 14.9066C2.5809 15.5331 3.13996 16.1703 3.76842 16.8075ZM8.49541 20.6951C6.88888 19.6031 5.46194 18.4494 4.25526 17.289C5.38568 16.0428 6.7895 14.7831 8.41358 13.577C8.22177 15.9259 8.24919 18.3742 8.49541 20.6951ZM19.8173 1.43252C18.9971 0.623593 17.5865 1.1991 17.5865 2.34338C17.5865 3.48766 18.9957 4.06451 19.8173 3.25424C20.3288 2.7512 20.3288 1.9356 19.8173 1.43252ZM17.2436 1.23399C16.7349 0.901295 16.1772 0.697388 15.5745 0.697388C13.8102 0.697388 12.186 2.44534 10.9848 5.27315C10.7385 5.85267 10.5114 6.47646 10.3046 7.13783C11.805 7.56978 13.3871 8.16006 14.9989 8.89921C16.9958 7.98296 18.9479 7.29745 20.7556 6.85478C20.4305 5.8594 20.0578 4.95792 19.6456 4.16777C18.341 4.69094 16.8978 3.74385 16.8978 2.342C16.8964 1.93151 17.0243 1.54918 17.2433 1.23392L17.2436 1.23399ZM27.4624 19.4862C27.2651 19.6378 27.0937 19.8283 26.9618 20.055C26.1565 21.4313 27.2542 23.1216 28.8403 23.0036C28.8784 23.6046 28.7791 24.1827 28.4771 24.6979C27.4705 26.4177 24.6287 26.7302 21.5681 26.246C22.0646 24.6013 22.4359 22.7351 22.6509 20.7244C23.9718 19.7787 25.162 18.7927 26.1946 17.8026C26.6775 18.3701 27.1019 18.9349 27.4624 19.4862ZM4.45285 26.4553C4.15086 27.566 5.36834 28.4769 6.36952 27.9054C7.37071 27.3353 7.1789 25.8409 6.05393 25.5431C5.35474 25.3593 4.64059 25.7658 4.45285 26.4553ZM3.80805 26.2098C2.83953 25.9616 2.00972 25.5122 1.51459 24.6845C0.645353 23.178 1.3704 20.9216 3.24763 18.4895C3.42311 18.2615 3.60949 18.0321 3.80537 17.8027C5.15615 19.0985 6.77491 20.3837 8.60166 21.5858C8.81251 23.1889 9.12537 24.6887 9.52122 26.0434C8.87778 26.1803 8.25614 26.2836 7.66169 26.352C7.61953 26.1682 7.54471 25.9763 7.44405 25.806C6.56938 24.3142 4.31666 24.5785 3.80805 26.2098ZM18.5061 13.8064H12.6432V19.5882H18.5061V13.8064ZM12.2978 13.1249C12.1073 13.1249 11.9522 13.2778 11.9522 13.4656V14.5509H10.6994C10.245 14.5509 10.245 15.2311 10.6994 15.2311L11.9522 15.2324V15.7556H11.2313C10.7769 15.7556 10.7769 16.4357 11.2313 16.4357H11.9522V16.9589H10.6994C10.245 16.9589 10.245 17.6391 10.6994 17.6391H11.9522V18.1622H11.2313C10.7769 18.1622 10.7769 18.8424 11.2313 18.8424H11.9522V19.9277C11.9522 20.1155 12.1073 20.2684 12.2978 20.2684H13.3983V20.9794C13.3983 21.4274 14.0879 21.4274 14.0879 20.9794V20.2684H14.6185V21.5039C14.6185 21.952 15.3081 21.952 15.3081 21.5039V20.2684H15.8386V20.9794C15.8386 21.4274 16.5283 21.4274 16.5283 20.9794V20.2684H17.0588V21.5039C17.0588 21.952 17.7485 21.952 17.7485 21.5039V20.2684H18.8504C19.0408 20.2684 19.1959 20.1155 19.1959 19.9277V18.8424H19.9169C20.3712 18.8424 20.3712 18.1622 19.9169 18.1622H19.1959V17.6391H20.4488C20.9031 17.6391 20.9031 16.9589 20.4488 16.9589H19.1959V16.4357H19.9169C20.3712 16.4357 20.3712 15.7556 19.9169 15.7556H19.1959V15.2324H20.4488C20.9031 15.2324 20.9031 14.5523 20.4488 14.5523H19.1959V13.467C19.1959 13.2792 19.0408 13.1262 18.8504 13.1262H17.7485V11.8907C17.7485 11.4427 17.0588 11.4427 17.0588 11.8907V13.1262H16.5283V12.4153C16.5283 11.9672 15.8386 11.9672 15.8386 12.4153V13.1262H15.3081V11.8907C15.3081 11.4427 14.6185 11.4427 14.6185 11.8907V13.1262H14.0879V12.4153C14.0879 11.9672 13.3983 11.9672 13.3983 12.4153V13.1262H12.2978V13.1249ZM16.7378 15.5503H14.4103V17.8456H16.7378V15.5503ZM14.0661 14.8688C13.8757 14.8688 13.7206 15.0218 13.7206 15.2096V18.185C13.7206 18.3728 13.8757 18.5258 14.0661 18.5258H17.0833C17.2738 18.5258 17.4288 18.3728 17.4288 18.185V15.2096C17.4288 15.0218 17.2738 14.8688 17.0833 14.8688H14.0661ZM29.8319 21.6676C30.3897 20.6816 29.4728 19.497 28.3506 19.7935C27.2256 20.0913 27.0338 21.5858 28.035 22.1559C28.658 22.5114 29.4252 22.3195 29.8319 21.6676Z" fill="#6D6969"/>
</svg>
