<svg width="98" height="100" viewBox="0 0 98 100" fill="none" xmlns="http://www.w3.org/2000/svg">
<g filter="url(#filter0_d_867_1040)">
<rect x="4" width="89.719" height="92" rx="5" fill="#2D2D2C"/>
<path d="M64.4566 30.3541C58.6691 24.5486 49.2808 24.5486 43.4909 30.3541C37.7035 36.1597 37.7035 45.5774 43.4909 51.3854C49.2784 57.1909 58.6667 57.1909 64.4566 51.3854C70.244 45.5281 70.244 36.1602 64.4566 30.3541ZM61.4886 48.3582C57.3541 52.5057 50.641 52.5057 46.5064 48.3582C42.3719 44.2107 42.3719 37.4766 46.5064 33.3291C50.641 29.1816 57.3541 29.1816 61.4886 33.3291C65.6232 37.4766 65.6232 44.2107 61.4886 48.3582Z" fill="#4D4B4B"/>
<path d="M43.1013 54.4101C42.6148 54.0194 42.1284 53.6286 41.6914 53.1903C41.2544 52.7519 40.8155 52.264 40.4754 51.776C40.2322 51.4825 39.7952 51.4348 39.5025 51.6788L29.1413 60.5096C28.8487 60.7536 28.8487 61.1919 29.1413 61.4855L33.4222 65.7797C33.7148 66.0733 34.1518 66.0237 34.395 65.7797L43.2002 55.3861C43.4434 55.0926 43.3939 54.6541 43.1013 54.4101Z" fill="#4D4B4B"/>
<path d="M59.4954 39.0873H56.2843C55.9916 39.0873 55.7978 38.8929 55.7978 38.5994V35.3305C55.7978 35.037 55.604 34.8426 55.3114 34.8426H52.8299C52.5373 34.8426 52.3435 35.037 52.3435 35.3305V38.5994C52.3435 38.8929 52.1497 39.0873 51.8571 39.0873H48.5016C48.2089 39.0873 48.0151 39.2817 48.0151 39.5752V42.0645C48.0151 42.358 48.2089 42.5525 48.5016 42.5525H51.8571C52.1497 42.5525 52.3435 42.7469 52.3435 43.0404V46.3092C52.3435 46.6027 52.5373 46.7972 52.8299 46.7972H55.3114C55.604 46.7972 55.7978 46.6027 55.7978 46.3092V43.0404C55.7978 42.7469 55.9916 42.5525 56.2843 42.5525H59.4954C59.788 42.5525 59.9818 42.358 59.9818 42.0645V39.5752C59.9818 39.3313 59.7386 39.0873 59.4954 39.0873Z" fill="#4D4B4B"/>
</g>
<defs>
<filter id="filter0_d_867_1040" x="0" y="0" width="97.719" height="100" filterUnits="userSpaceOnUse" color-interpolation-filters="sRGB">
<feFlood flood-opacity="0" result="BackgroundImageFix"/>
<feColorMatrix in="SourceAlpha" type="matrix" values="0 0 0 0 0 0 0 0 0 0 0 0 0 0 0 0 0 0 127 0" result="hardAlpha"/>
<feOffset dy="4"/>
<feGaussianBlur stdDeviation="2"/>
<feComposite in2="hardAlpha" operator="out"/>
<feColorMatrix type="matrix" values="0 0 0 0 0 0 0 0 0 0 0 0 0 0 0 0 0 0 0.25 0"/>
<feBlend mode="normal" in2="BackgroundImageFix" result="effect1_dropShadow_867_1040"/>
<feBlend mode="normal" in="SourceGraphic" in2="effect1_dropShadow_867_1040" result="shape"/>
</filter>
</defs>
</svg>
