<svg width="22" height="21" viewBox="0 0 22 21" fill="none" xmlns="http://www.w3.org/2000/svg">
<path d="M15.2699 20.5738C13.8056 20.3785 12.4134 19.8632 11.2104 19.0718C9.81729 18.1796 8.53629 17.1467 7.39352 15.9923C5.98954 14.614 4.5604 13.2535 3.3214 11.7337C2.34606 10.5124 1.47371 9.23267 0.998149 7.76211C0.66745 6.82689 0.580392 5.83321 0.745313 4.86194C0.959635 3.70215 1.62856 2.75917 2.5436 1.96945C2.92118 1.6595 3.33057 1.38492 3.76758 1.14881C4.29837 0.838872 4.97899 0.848873 5.49889 1.17419C6.71701 1.84023 7.65133 2.86929 8.1462 4.08992C8.31866 4.44062 8.2701 4.84979 8.01978 5.15743C7.71337 5.53737 7.39355 5.9073 7.08547 6.28724C6.81338 6.62409 6.53042 6.95481 6.28845 7.30937H6.28761C6.03227 7.64085 6.03644 8.08538 6.29849 8.41226C6.90965 9.19981 7.50071 10.0112 8.16543 10.7611C9.36765 12.1278 10.6987 13.3953 12.143 14.5473C12.4645 14.8011 12.8094 15.0257 13.1527 15.2564V15.2557C13.4507 15.4687 13.8568 15.5025 14.1917 15.3426C14.5592 15.1764 14.9175 14.9919 15.2633 14.7911C15.7438 14.5096 16.2152 14.2205 16.6865 13.9428C17.0833 13.7098 17.5881 13.7005 17.9942 13.919C19.2098 14.4735 20.2011 15.3702 20.823 16.4785C21.1814 17.0453 21.1194 17.7568 20.669 18.2644C19.4835 19.6941 17.9681 20.5754 15.9539 20.6154C15.7254 20.6123 15.4967 20.5984 15.2699 20.5738Z" fill="white" fill-opacity="0.6"/>
</svg>
