<svg width="34" height="35" viewBox="0 0 34 35" fill="none" xmlns="http://www.w3.org/2000/svg">
<path fill-rule="evenodd" clip-rule="evenodd" d="M19.9417 12.709V15.4249C19.9417 16.2456 20.6025 16.9126 21.4152 16.9126H25.2035V21.4982H22.9063V23.8187H13.4161C12.6033 23.8187 11.9426 24.4858 11.9426 25.3064V29.131H9.14477V20.4712H13.9948C14.8076 20.4712 15.4683 19.804 15.4683 18.9835V10.3779H17.6659C18.0656 11.4404 18.8946 12.2895 19.9415 12.7066L19.9417 12.709ZM28.9905 1.19469V5.25018H33.0075L28.9905 1.19469ZM28.4993 6.24213C28.2275 6.24213 28.0081 6.02068 28.0081 5.74622V0.697388H9.14495V17.497H12.5241V8.89149C12.5241 8.07086 13.1822 7.40379 13.9963 7.40379H17.7091C18.3093 5.93373 19.7438 4.89847 21.4167 4.89847C23.6304 4.89847 25.4243 6.71224 25.4243 8.94456C25.4243 10.6551 24.3746 12.117 22.8903 12.7093V13.9375H26.6785C27.4913 13.9375 28.1521 14.6046 28.1521 15.4252V21.4983H30.238V28.9015H22.9079V26.7929H14.8912V30.6174C14.8912 31.438 14.2317 32.1051 13.4176 32.1051H9.14639V34.6974H33.5V6.2422L28.4993 6.24213ZM13.4164 31.1149C13.6883 31.1149 13.9076 30.8934 13.9076 30.6189V25.8024H23.8891V27.9111H29.2544V22.4928H27.1685V15.4281C27.1685 15.155 26.9478 14.9322 26.6773 14.9322H21.9066V12.0029C21.9066 11.9894 21.9052 11.9758 21.9039 11.9622C23.3385 11.7244 24.4393 10.4609 24.4393 8.94735C24.4393 7.26537 23.0814 5.89314 21.4141 5.89314C19.9324 5.89314 18.6944 6.97734 18.4387 8.40118C18.4225 8.39982 18.4064 8.39846 18.3889 8.39846H13.9936C13.7231 8.39846 13.5024 8.62128 13.5024 8.89437V18.4919H6.20576V16.28L0.843152 16.2773V21.6941H6.20852V19.4822H13.9961C14.268 19.4822 14.4873 19.2594 14.4873 18.9863V9.38882H18.3913C18.402 9.38882 18.4128 9.38746 18.4236 9.38746C18.6133 10.6999 19.6347 11.746 20.9266 11.9607C20.9253 11.9743 20.9239 11.9879 20.9239 12.0015V15.4266C20.9239 15.7011 21.1446 15.9225 21.4151 15.9225H26.1859V22.4916H23.8887V24.8122H13.4164C13.1459 24.8122 12.9252 25.0337 12.9252 25.3081V30.1232H6.5087C6.2732 28.6749 5.02435 27.5649 3.52519 27.5649C1.85919 27.5649 0.5 28.9358 0.5 30.6191C0.5 32.3011 1.85784 33.6747 3.52519 33.6747C5.02435 33.6747 6.27319 32.5633 6.5087 31.115L13.4164 31.1149Z" fill="#6D6969" fill-opacity="0.5"/>
</svg>
