<svg width="34" height="35" viewBox="0 0 34 35" fill="none" xmlns="http://www.w3.org/2000/svg">
<path fill-rule="evenodd" clip-rule="evenodd" d="M19.9417 12.7089V15.4248C19.9417 16.2454 20.6025 16.9125 21.4152 16.9125H25.2035V21.498H22.9063V23.8186H13.4161C12.6033 23.8186 11.9426 24.4857 11.9426 25.3063V29.1308H9.14477V20.471H13.9948C14.8076 20.471 15.4683 19.8039 15.4683 18.9833V10.3778H17.6659C18.0656 11.4402 18.8946 12.2894 19.9415 12.7065L19.9417 12.7089ZM28.9905 1.19457V5.25005H33.0075L28.9905 1.19457ZM28.4993 6.24201C28.2275 6.24201 28.0081 6.02055 28.0081 5.7461V0.697266H9.14495V17.4969H12.5241V8.89137C12.5241 8.07074 13.1822 7.40367 13.9963 7.40367H17.7091C18.3093 5.93361 19.7438 4.89835 21.4167 4.89835C23.6304 4.89835 25.4243 6.71211 25.4243 8.94444C25.4243 10.655 24.3746 12.1169 22.8903 12.7092V13.9373H26.6785C27.4913 13.9373 28.1521 14.6045 28.1521 15.425V21.4982H30.238V28.9014H22.9079V26.7928H14.8912V30.6173C14.8912 31.4379 14.2317 32.105 13.4176 32.105H9.14639V34.6973H33.5V6.24208L28.4993 6.24201ZM13.4164 31.1147C13.6883 31.1147 13.9076 30.8933 13.9076 30.6188V25.8023H23.8891V27.9109H29.2544V22.4927H27.1685V15.428C27.1685 15.1549 26.9478 14.9321 26.6773 14.9321H21.9066V12.0028C21.9066 11.9892 21.9052 11.9756 21.9039 11.9621C23.3385 11.7243 24.4393 10.4608 24.4393 8.94723C24.4393 7.26524 23.0814 5.89302 21.4141 5.89302C19.9324 5.89302 18.6944 6.97722 18.4387 8.40106C18.4225 8.3997 18.4064 8.39834 18.3889 8.39834H13.9936C13.7231 8.39834 13.5024 8.62116 13.5024 8.89425V18.4918H6.20576V16.2799L0.843152 16.2772V21.694H6.20852V19.4821H13.9961C14.268 19.4821 14.4873 19.2593 14.4873 18.9862V9.3887H18.3913C18.402 9.3887 18.4128 9.38734 18.4236 9.38734C18.6133 10.6998 19.6347 11.7459 20.9266 11.9606C20.9253 11.9742 20.9239 11.9878 20.9239 12.0013V15.4265C20.9239 15.7009 21.1446 15.9224 21.4151 15.9224H26.1859V22.4915H23.8887V24.8121H13.4164C13.1459 24.8121 12.9252 25.0336 12.9252 25.308V30.1231H6.5087C6.2732 28.6748 5.02435 27.5648 3.52519 27.5648C1.85919 27.5648 0.5 28.9356 0.5 30.619C0.5 32.301 1.85784 33.6746 3.52519 33.6746C5.02435 33.6746 6.27319 32.5632 6.5087 31.1149L13.4164 31.1147Z" fill="#BDB6B6"/>
</svg>
