<svg width="18" height="20" viewBox="0 0 18 20" fill="none" xmlns="http://www.w3.org/2000/svg">
<path d="M14.4206 0.5H3.57999C2.10031 0.5 0.900391 1.7 0.900391 3.1796V18.7194C0.900391 19.0194 1.06055 19.2796 1.32071 19.4194C1.44102 19.4796 1.56055 19.4991 1.68087 19.4991C1.84103 19.4991 2.00119 19.4592 2.14103 19.3592L6.74103 16.0592H14.4206C15.9003 16.0592 17.1002 14.8592 17.1002 13.3796V3.17964C17.1002 1.69996 15.9002 0.5 14.4206 0.5ZM15.5206 13.3796C15.5206 13.9796 15.0206 14.4796 14.4206 14.4796H6.50019C6.34003 14.4796 6.17987 14.5398 6.04003 14.6194L2.47983 17.1796V3.17964C2.47983 2.57964 2.97983 2.07964 3.57983 2.07964H14.44C15.04 2.07964 15.54 2.57964 15.54 3.17964V13.3796L15.5206 13.3796Z" fill="white" fill-opacity="0.6"/>
</svg>
