<svg width="24" height="18" viewBox="0 0 24 18" fill="none" xmlns="http://www.w3.org/2000/svg">
<path d="M10.2755 0.170592L4.4502 4.94609L1.2002 5.24589C0.5254 5.32109 0 5.87089 0 6.57109V10.9958C0 11.6706 0.5254 12.2458 1.2002 12.321L4.4502 12.6208L10.2755 17.3963C10.7501 17.7967 11.4757 17.4461 11.4757 16.8211V0.745892C11.4503 0.119917 10.7511 -0.229783 10.2755 0.170592Z" fill="white" fill-opacity="0.6"/>
<path d="M15.9005 6.02049C15.5753 5.47069 14.8253 5.34569 14.3253 5.77049L14.2501 5.8203C13.9005 6.1201 13.7999 6.6455 14.0254 7.0449C14.3008 7.5449 14.4756 8.1201 14.4756 8.7451C14.4756 9.3701 14.3008 9.9453 14.0254 10.4453C13.8008 10.8457 13.9004 11.3701 14.2501 11.6699L14.3253 11.7197C14.7999 12.1445 15.5753 12.0449 15.9005 11.4697C16.3507 10.6699 16.6251 9.71971 16.6251 8.71971C16.626 7.77048 16.3506 6.84572 15.9005 6.02049Z" fill="white" fill-opacity="0.6"/>
<path d="M18.5255 3.5458C18.1759 3.0458 17.4503 2.9706 17.0001 3.37099L16.9503 3.4208C16.5753 3.7704 16.5001 4.3456 16.7999 4.7704C17.5997 5.8954 18.0499 7.2959 18.0499 8.7704C18.0499 10.2704 17.5753 11.6454 16.7999 12.7704C16.5001 13.1952 16.5753 13.7704 16.9503 14.12L17.0001 14.1698C17.4503 14.5702 18.1749 14.495 18.5255 13.995C19.5753 12.5204 20.1759 10.7195 20.1759 8.7705C20.1759 6.8203 19.5753 5.0203 18.5255 3.5458Z" fill="white" fill-opacity="0.6"/>
<path d="M21.1504 1.11933C20.7754 0.644725 20.1006 0.569525 19.6504 0.968935L19.5752 1.01874C19.1748 1.36834 19.125 1.96894 19.4502 2.39374C20.7998 4.16914 21.5752 6.36824 21.5752 8.74324C21.5752 11.1182 20.7754 13.3427 19.4502 15.0927C19.125 15.5175 19.1748 16.1181 19.5752 16.4677L19.6504 16.5175C20.1006 16.9179 20.7754 16.8427 21.1504 16.3672C22.7754 14.2422 23.7257 11.5917 23.7257 8.71665C23.7257 5.8944 22.7755 3.2439 21.1504 1.1189V1.11933Z" fill="white" fill-opacity="0.6"/>
</svg>
