<svg width="41" height="40" viewBox="0 0 41 40" fill="none" xmlns="http://www.w3.org/2000/svg">
<path d="M14.5281 38.6657C14.0469 38.6657 13.5797 38.5095 13.1953 38.222L12.3062 37.5548C11.6078 37.0298 11.1969 36.2063 11.1953 35.3329V33.6657C11.1953 33.3595 11.4437 33.111 11.75 33.111C12.0562 33.111 12.3062 33.3595 12.3062 33.6657V35.3329C12.3062 35.8579 12.5531 36.3517 12.9719 36.6657L13.861 37.3313V37.3329C14.2578 37.6235 14.7985 37.6235 15.1953 37.3329L16.0844 36.6657C16.5032 36.3501 16.7485 35.8579 16.75 35.3329V33.6657C16.75 33.3595 16.9985 33.111 17.3063 33.111C17.6125 33.111 17.861 33.3595 17.861 33.6657V35.3329C17.8594 36.2063 17.4485 37.0298 16.75 37.5548L15.861 38.222C15.4766 38.5095 15.0078 38.6657 14.5281 38.6657Z" fill="#6D6969"/>
<path d="M34.5281 2.00012H17.8609C16.3281 2.00012 15.0843 3.24388 15.0828 4.77668V14.7767C15.0843 16.311 16.3281 17.5548 17.8609 17.5548H24.7173C25.2032 17.5548 25.6642 17.7689 25.9782 18.1392C26.3001 18.5048 26.4407 18.9954 26.361 19.4767L26.1329 20.9829C26.0173 21.6845 26.3673 22.3814 27.0001 22.7048C27.2407 22.8361 27.5095 22.9048 27.7829 22.9048C28.2032 22.9064 28.6079 22.7454 28.911 22.4548L33.9438 17.7828H33.9454C34.1048 17.6375 34.3126 17.5562 34.5282 17.5547C36.0625 17.5547 37.3047 16.3109 37.3063 14.7766V4.77656C37.3047 3.24376 36.0624 2.00012 34.5281 2.00012ZM17.8609 12.5549C17.864 11.6362 18.6078 10.8908 19.5281 10.8893H32.8609C33.7812 10.8893 34.5281 11.6346 34.5281 12.5549C34.5281 13.4752 33.7812 14.2221 32.8609 14.2221H19.5281C18.6078 14.219 17.864 13.4752 17.8609 12.5549ZM19.5281 5.33292H32.8609C33.7812 5.33292 34.5281 6.0798 34.5281 7.00012C34.5281 7.92044 33.7812 8.66576 32.8609 8.66576H19.5281C18.6078 8.66576 17.8609 7.92044 17.8609 7.00012C17.8609 6.0798 18.6078 5.33292 19.5281 5.33292Z" fill="#6D6969"/>
<path d="M24.7109 18.6657C24.1249 20.8329 22.8593 22.7549 21.0999 24.1501C20.2718 24.7814 19.7296 25.7173 19.5953 26.7501L19.2015 30.1001H19.1999C19.0359 31.5001 17.8484 32.5548 16.439 32.5548H12.6171C11.2093 32.5548 10.0234 31.5032 9.85623 30.1048L9.46716 26.7876V26.7892C9.32966 25.7376 8.77964 24.7845 7.93904 24.1392C5.75468 22.3923 4.35312 19.85 4.0406 17.072C3.72654 14.2923 4.52968 11.5032 6.27028 9.31555C8.01248 7.12647 10.5499 5.71867 13.3283 5.39991C13.5455 5.37804 13.7611 5.36085 13.972 5.34991V14.7763C13.9752 16.9232 15.7142 18.6638 17.8611 18.6654L24.7109 18.6657Z" fill="#6D6969"/>
</svg>
