<svg width="99" height="100" viewBox="0 0 99 100" fill="none" xmlns="http://www.w3.org/2000/svg">
<g filter="url(#filter0_d_867_1049)">
<rect x="4.6405" width="89.719" height="92" rx="5" fill="#2D2D2C"/>
<path d="M44.8479 50.3333H54.1521V64.3333H44.8479V50.3333Z" fill="#6D6969"/>
<path d="M29.6405 27V53.6667H69.6389L69.6405 27H29.6405ZM42.1619 29.6123H57.1175V31.6872H42.1619V29.6123ZM45.5531 49.1322H33.9024V36.5286H45.6412V49.1322H45.5531ZM64.5097 48.2863H52.4236C51.9019 48.2863 51.5546 47.9016 51.5546 47.5184C51.5546 47.1336 51.9019 46.7504 52.4236 46.7504H64.5097C65.0314 46.7504 65.3787 47.1351 65.3787 47.5184C65.3787 47.9031 65.0314 48.2863 64.5097 48.2863ZM64.5097 43.5991H52.4236C51.9019 43.5991 51.5546 43.2144 51.5546 42.8311C51.5546 42.4464 51.9019 42.0631 52.4236 42.0631H64.5097C65.0314 42.0631 65.3787 42.4479 65.3787 42.8311C65.3787 43.2144 65.0314 43.5991 64.5097 43.5991ZM64.5097 38.9119H52.4236C51.9019 38.9119 51.5546 38.5272 51.5546 38.1439C51.5546 37.7592 51.9019 37.3759 52.4236 37.3759H64.5097C65.0314 37.3759 65.3787 37.7607 65.3787 38.1439C65.3787 38.5272 65.0314 38.9119 64.5097 38.9119Z" fill="#6D6969" fill-opacity="0.5"/>
</g>
<defs>
<filter id="filter0_d_867_1049" x="0.640503" y="0" width="97.719" height="100" filterUnits="userSpaceOnUse" color-interpolation-filters="sRGB">
<feFlood flood-opacity="0" result="BackgroundImageFix"/>
<feColorMatrix in="SourceAlpha" type="matrix" values="0 0 0 0 0 0 0 0 0 0 0 0 0 0 0 0 0 0 127 0" result="hardAlpha"/>
<feOffset dy="4"/>
<feGaussianBlur stdDeviation="2"/>
<feComposite in2="hardAlpha" operator="out"/>
<feColorMatrix type="matrix" values="0 0 0 0 0 0 0 0 0 0 0 0 0 0 0 0 0 0 0.25 0"/>
<feBlend mode="normal" in2="BackgroundImageFix" result="effect1_dropShadow_867_1049"/>
<feBlend mode="normal" in="SourceGraphic" in2="effect1_dropShadow_867_1049" result="shape"/>
</filter>
</defs>
</svg>
