<svg width="16" height="15" viewBox="0 0 16 15" fill="none" xmlns="http://www.w3.org/2000/svg">
<path d="M0.687202 4.45768C1.01869 3.59158 1.49907 2.81568 2.11285 2.14828C2.72596 1.48091 3.42195 0.957998 4.21761 0.597181C5.04632 0.218035 5.90802 0.0200195 6.80352 0.0200195C7.69826 0.0200195 8.5768 0.218757 9.38943 0.597181C10.1851 0.957998 10.898 1.48089 11.5111 2.14898C12.1242 2.81635 12.6053 3.59225 12.9367 4.45838C13.0028 4.62047 13.0695 4.80087 13.1193 4.96367L13.6334 4.1159C13.8988 3.68321 14.4453 3.55634 14.8434 3.84529C15.241 4.13423 15.3575 4.729 15.0921 5.16241L12.8862 8.80575L9.53837 6.40614C9.14085 6.1172 9.0243 5.52243 9.28975 5.08902C9.55521 4.65633 10.1016 4.52947 10.4998 4.81841L11.4444 5.5041C11.1958 4.76414 10.8145 4.07917 10.2842 3.50121C9.35579 2.49064 8.12956 1.9318 6.82053 1.9318C5.51149 1.9318 4.2845 2.49136 3.35685 3.50121C2.4116 4.51179 1.89753 5.84724 1.89753 7.2721C1.89753 8.69697 2.4116 10.0325 3.33936 11.0423C4.26778 12.0528 5.49401 12.6117 6.80304 12.6117C8.11214 12.6117 9.33906 12.0521 10.2667 11.0423C10.5484 10.7357 10.797 10.3925 10.9957 10.0317C11.2443 9.58068 11.7914 9.43621 12.1889 9.70682C12.6033 9.97743 12.736 10.5729 12.4874 11.0056C12.2058 11.5109 11.8743 11.9619 11.4929 12.377C10.8798 13.0444 10.167 13.568 9.37128 13.9288C8.54257 14.3079 7.68088 14.506 6.78537 14.506C5.9081 14.5243 5.0464 14.3263 4.21769 13.9471C3.422 13.5863 2.70917 13.0634 2.09603 12.3953C1.48291 11.7279 1.00186 10.952 0.670379 10.0859C0.322055 9.18387 0.140137 8.24593 0.140137 7.27118C0.156969 6.29797 0.339541 5.34172 0.687219 4.45718L0.687202 4.45768Z" fill="#AB2D2D"/>
</svg>
