<svg width="16" height="15" viewBox="0 0 16 15" fill="none" xmlns="http://www.w3.org/2000/svg">
<path d="M1.18708 4.45768C1.51856 3.59158 1.99895 2.81568 2.61273 2.14828C3.22584 1.48091 3.92183 0.957998 4.71749 0.597181C5.5462 0.218035 6.40789 0.0200195 7.3034 0.0200195C8.19814 0.0200195 9.07668 0.218757 9.88931 0.597181C10.685 0.957998 11.3978 1.48089 12.011 2.14898C12.6241 2.81635 13.1051 3.59225 13.4366 4.45838C13.5027 4.62047 13.5693 4.80087 13.6192 4.96367L14.1333 4.1159C14.3987 3.68321 14.9451 3.55634 15.3433 3.84529C15.7408 4.13423 15.8574 4.729 15.5919 5.16241L13.3861 8.80575L10.0382 6.40614C9.64073 6.1172 9.52418 5.52243 9.78963 5.08902C10.0551 4.65633 10.6015 4.52947 10.9997 4.81841L11.9443 5.5041C11.6957 4.76414 11.3143 4.07917 10.7841 3.50121C9.85566 2.49064 8.62944 1.9318 7.3204 1.9318C6.01137 1.9318 4.78438 2.49136 3.85672 3.50121C2.91148 4.51179 2.39741 5.84724 2.39741 7.2721C2.39741 8.69697 2.91148 10.0325 3.83924 11.0423C4.76766 12.0528 5.99389 12.6117 7.30292 12.6117C8.61202 12.6117 9.83894 12.0521 10.7666 11.0423C11.0482 10.7357 11.2968 10.3925 11.4956 10.0317C11.7442 9.58068 12.2913 9.43621 12.6888 9.70682C13.1032 9.97743 13.2359 10.5729 12.9873 11.0056C12.7057 11.5109 12.3742 11.9619 11.9928 12.377C11.3797 13.0444 10.6669 13.568 9.87116 13.9288C9.04245 14.3079 8.18076 14.506 7.28525 14.506C6.40798 14.5243 5.54628 14.3263 4.71757 13.9471C3.92188 13.5863 3.20905 13.0634 2.59591 12.3953C1.98279 11.7279 1.50174 10.952 1.17026 10.0859C0.821933 9.18387 0.640015 8.24593 0.640015 7.27118C0.656847 6.29797 0.839419 5.34172 1.1871 4.45718L1.18708 4.45768Z" fill="white" fill-opacity="0.75"/>
</svg>
