<svg width="21" height="16" viewBox="0 0 21 16" fill="none" xmlns="http://www.w3.org/2000/svg">
<path fill-rule="evenodd" clip-rule="evenodd" d="M2.36984 15.7538H12.6665C13.6946 15.7538 14.5363 14.7053 14.5363 13.4245V2.32933C14.5363 1.04856 13.6946 0 12.6665 0H2.36984C1.34172 0 0.5 1.04856 0.5 2.32933V13.4245C0.5 14.7053 1.34172 15.7538 2.36984 15.7538ZM16.0607 4.50191L19.8516 2.41069C20.1045 2.27167 20.3752 2.29829 20.6078 2.48612C20.8405 2.67394 20.9687 2.97119 20.9687 3.31581V12.435C20.9687 12.7796 20.8393 13.0769 20.6078 13.2647C20.3751 13.4525 20.1057 13.4792 19.8516 13.3401L16.0607 11.2489V4.50056V4.50191Z" fill="white" fill-opacity="0.6"/>
</svg>
