<svg width="18" height="17" viewBox="0 0 18 17" fill="none" xmlns="http://www.w3.org/2000/svg">
<path d="M14.4045 0.630768H3.73921C2.17377 0.630768 0.900391 1.87101 0.900391 3.39563V13.7839C0.900391 15.3085 2.17381 16.5487 3.73921 16.5487H14.4053C15.9708 16.5487 17.2441 15.3085 17.2441 13.7839V3.39645C17.2441 1.87099 15.9707 0.630768 14.4045 0.630768ZM3.92843 10.518V10.0373V6.6397C3.92843 6.27772 4.23207 6.00947 4.59211 5.99332C4.95049 5.97796 5.25578 6.30196 5.25578 6.6397V7.12044V10.518C5.25578 10.88 4.95215 11.1483 4.59211 11.1644C4.23372 11.1798 3.92843 10.8558 3.92843 10.518ZM6.91485 12.9759V11.8747V4.24984C6.91485 3.41683 8.2422 3.41763 8.2422 4.24984V5.35111V12.9759C8.2422 13.8098 6.91485 13.8081 6.91485 12.9759ZM9.90127 11.73V10.9536V5.46254C9.90127 4.62952 11.2286 4.63033 11.2286 5.46254V6.239V11.73C11.2286 12.5631 9.90127 12.5614 9.90127 11.73ZM14.215 7.69745V9.79089C14.215 10.1529 13.9114 10.4211 13.5514 10.4373C13.193 10.4526 12.8877 10.1286 12.8877 9.79089V9.49517V7.40172C12.8877 7.03975 13.1913 6.7715 13.5514 6.75534C13.9097 6.73999 14.215 7.06399 14.215 7.40172V7.69745Z" fill="white" fill-opacity="0.6"/>
</svg>
